<svg id="Layer_1" data-name="Layer 1" xmlns="http://www.w3.org/2000/svg" width="1204.72" height="421.44" viewBox="0 0 1204.72 421.44"><defs><style>.cls-1,.cls-2{fill:#b8967e;}.cls-1{fill-rule:evenodd;}.cls-3{font-size:261.57px;fill:#0a1d35;font-family:Marcellus-Regular, Marcellus;}</style></defs><title>logo2</title><path class="cls-1" d="M227.46,511.55v71.32l-15.29,15.28v-86.6c0-4.52,3.43-8.26,7.64-8.26h0c4.21,0,7.65,3.72,7.65,8.26Zm0,82.19L212.17,609v91.31c0,4.54,3.45,8.28,7.64,8.28h0c4.17,0,7.65-3.73,7.65-8.28Z" transform="translate(-13.36 -372.86)"/><polygon class="cls-1" points="79.06 162.12 79.06 103.09 256.51 103.09 256.51 145.98 256.51 162.12 256.51 167.59 81.62 342.49 81.62 320.88 241.23 161.28 241.23 118.38 94.34 118.38 94.34 161.28 110.73 177.66 110.73 199.27 79.06 167.59 79.06 162.12 79.06 162.12"/><path class="cls-1" d="M150.12,511.55V660.21l-15.28,15.27V511.55c0-4.52,3.42-8.26,7.63-8.26h0c4.21,0,7.65,3.72,7.65,8.26Zm0,159.52-15.28,15.28v14c0,4.54,3.44,8.28,7.63,8.28h0c4.19,0,7.65-3.73,7.65-8.28Z" transform="translate(-13.36 -372.86)"/><path class="cls-1" d="M188.79,511.55v110L173.5,636.82V511.55c0-4.52,3.43-8.26,7.64-8.26h0c4.2,0,7.64,3.72,7.64,8.26Zm0,120.85L173.5,647.69v52.65c0,4.54,3.45,8.28,7.64,8.28h0c4.17,0,7.64-3.73,7.64-8.28Z" transform="translate(-13.36 -372.86)"/><path class="cls-1" d="M83,766.65H279.26c4.54,0,8.28-3.45,8.28-7.65h0c0-4.19-3.79-7.63-8.28-7.63H83c-4.49,0-8.26,3.43-8.26,7.63h0C74.77,763.22,78.49,766.65,83,766.65Z" transform="translate(-13.36 -372.86)"/><path class="cls-1" d="M62.84,794.3h236.6c4.55,0,8.26-3.47,8.26-7.63h0c0-4.17-3.75-7.64-8.26-7.64H62.84c-4.52,0-8.26,3.44-8.26,7.64h0C54.58,790.86,58.29,794.3,62.84,794.3Z" transform="translate(-13.36 -372.86)"/><path class="cls-1" d="M62.84,419.62h236.6c4.55,0,8.26,3.46,8.26,7.62h0c0,4.17-3.75,7.65-8.26,7.65H62.84c-4.52,0-8.26-3.45-8.26-7.65h0C54.58,423,58.29,419.62,62.84,419.62Z" transform="translate(-13.36 -372.86)"/><path class="cls-1" d="M329,467.13Zm-295.81,0ZM56,489.86Zm10.72,10.73ZM22.51,456.41ZM33.2,467.13a16.09,16.09,0,1,0,27,15.32c2.45-9.82,17.83-6.18,14.23,5.44a30.78,30.78,0,0,1-7.75,12.68,31.23,31.23,0,1,1-44.16-44.16c7.19-7.19,16-9.15,25.56-9.15H314.2c9.56,0,18.38,2,25.56,9.15a31.23,31.23,0,1,1-51.91,31.48c-3.59-11.62,11.79-15.26,14.24-5.44a16.08,16.08,0,1,0,27-15.32c-4.12-4.08-8.93-4.7-14.26-4.7H47.46c-5.33,0-10.13.62-14.26,4.7Zm273.1,22.73Zm-10.72,10.73Zm44.18-44.18" transform="translate(-13.36 -372.86)"/><polygon class="cls-1" points="241.23 347.82 94.34 347.82 94.34 329.76 94.34 308.15 81.62 320.88 79.06 323.43 79.06 363.1 256.51 363.1 256.51 320.21 256.51 304.08 256.51 298.6 224.84 266.93 224.84 288.55 241.23 304.93 241.23 347.82"/><path class="cls-2" d="M181.15,372.86a28.24,28.24,0,1,1-20,8.27,28.15,28.15,0,0,1,20-8.27ZM191,391.28a13.87,13.87,0,1,0,4.07,9.81A13.86,13.86,0,0,0,191,391.28Z" transform="translate(-13.36 -372.86)"/><text class="cls-3" transform="translate(370.84 316.82)">Attorly</text></svg>