<svg id="Layer_1" data-name="Layer 1" xmlns="http://www.w3.org/2000/svg" width="497.25" height="624.51" viewBox="0 0 497.25 624.51"><defs><style>.cls-1,.cls-2{fill:#b8967e;}.cls-1{fill-rule:evenodd;}</style></defs><title>logo</title><path class="cls-1" d="M368.59,245V350.7l-22.66,22.64V245c0-6.7,5.09-12.24,11.33-12.24h0c6.24,0,11.33,5.51,11.33,12.24Zm0,121.78-22.66,22.66V524.77c0,6.71,5.12,12.26,11.33,12.26h0c6.19,0,11.33-5.53,11.33-12.26Z" transform="translate(-51.33 -39.49)"/><polygon class="cls-1" points="117.16 240.23 117.16 152.77 380.1 152.77 380.1 216.32 380.1 240.23 380.1 248.35 120.94 507.51 120.94 475.49 357.46 238.98 357.46 175.41 139.8 175.41 139.8 238.98 164.09 263.26 164.09 295.29 117.16 248.35 117.16 240.23 117.16 240.23"/><path class="cls-1" d="M254,245V465.29l-22.64,22.63V245c0-6.7,5.07-12.24,11.31-12.24h0c6.23,0,11.33,5.51,11.33,12.24Zm0,236.38L231.35,504v20.73c0,6.71,5.09,12.26,11.31,12.26h0c6.2,0,11.33-5.53,11.33-12.26Z" transform="translate(-51.33 -39.49)"/><path class="cls-1" d="M311.29,245V408l-22.66,22.66V245c0-6.7,5.09-12.24,11.33-12.24h0c6.22,0,11.32,5.51,11.32,12.24Zm0,179.08-22.66,22.66v78c0,6.71,5.12,12.26,11.33,12.26h0c6.18,0,11.32-5.53,11.32-12.26Z" transform="translate(-51.33 -39.49)"/><path class="cls-1" d="M154.58,623H445.36c6.73,0,12.26-5.11,12.26-11.33h0c0-6.21-5.61-11.31-12.26-11.31H154.58c-6.65,0-12.25,5.09-12.25,11.31h0C142.33,617.94,147.85,623,154.58,623Z" transform="translate(-51.33 -39.49)"/><path class="cls-1" d="M124.65,664H475.26c6.74,0,12.24-5.14,12.24-11.31h0c0-6.18-5.56-11.33-12.24-11.33H124.65c-6.69,0-12.23,5.11-12.23,11.33h0C112.42,658.9,117.92,664,124.65,664Z" transform="translate(-51.33 -39.49)"/><path class="cls-1" d="M124.65,108.77H475.26c6.74,0,12.24,5.13,12.24,11.31h0c0,6.18-5.56,11.33-12.24,11.33H124.65c-6.69,0-12.23-5.11-12.23-11.33h0C112.42,113.85,117.92,108.77,124.65,108.77Z" transform="translate(-51.33 -39.49)"/><path class="cls-1" d="M519.13,179.18Zm-438.35,0Zm33.69,33.69Zm15.89,15.9ZM64.9,163.3Zm15.84,15.88a23.84,23.84,0,1,0,40,22.7c3.64-14.55,26.43-9.15,21.1,8.06A46.31,46.31,0,1,1,64.9,163.3c10.65-10.66,23.7-13.55,37.88-13.55H497.13c14.17,0,27.24,2.89,37.88,13.55a46.27,46.27,0,1,1-76.93,46.64c-5.31-17.21,17.47-22.61,21.11-8.06a23.83,23.83,0,1,0,40-22.7c-6.11-6-13.23-7-21.13-7H101.87c-7.9,0-15,.92-21.13,7Zm404.69,33.69Zm-15.89,15.9ZM535,163.3" transform="translate(-51.33 -39.49)"/><polygon class="cls-1" points="357.46 515.41 139.8 515.41 139.8 488.66 139.8 456.63 120.94 475.49 117.16 479.27 117.16 538.05 380.1 538.05 380.1 474.5 380.1 450.59 380.1 442.47 333.17 395.54 333.17 427.58 357.46 451.86 357.46 515.41"/><path class="cls-2" d="M300,39.49a41.86,41.86,0,1,1-29.59,12.26A41.63,41.63,0,0,1,300,39.49Zm14.54,27.29a20.59,20.59,0,1,0,6,14.54A20.54,20.54,0,0,0,314.51,66.78Z" transform="translate(-51.33 -39.49)"/></svg>